<?xml version="1.0" encoding="utf-8"?>
<!-- Generator: Adobe Illustrator 21.0.0, SVG Export Plug-In . SVG Version: 6.00 Build 0)  -->
<svg version="1.1" id="Layer_1" xmlns="http://www.w3.org/2000/svg" xmlns:xlink="http://www.w3.org/1999/xlink" x="0px" y="0px"
	 viewBox="0 0 700 700" style="enable-background:new 0 0 700 700;" xml:space="preserve">
<style type="text/css">
	.st0{fill:#FFEB3B;stroke:#FFEB3B;stroke-width:6;stroke-miterlimit:10;}
</style>
<line class="st0" x1="371.2" y1="264.1" x2="404.4" y2="297.4"/>
<line class="st0" x1="404.4" y1="297.4" x2="404.4" y2="509"/>
<line class="st0" x1="404.4" y1="509" x2="551.2" y2="509"/>
<line class="st0" x1="551.2" y1="509" x2="510.2" y2="468"/>
<line class="st0" x1="510.2" y1="468" x2="412.9" y2="468"/>
<line class="st0" x1="362.3" y1="264.1" x2="362.3" y2="468"/>
<line class="st0" x1="371.2" y1="264.1" x2="362.3" y2="255.3"/>
<line class="st0" x1="362.3" y1="268.6" x2="362.3" y2="255.3"/>
<line class="st0" x1="362.3" y1="468" x2="397.5" y2="468"/>
<line class="st0" x1="328.7" y1="436" x2="295.4" y2="402.8"/>
<line class="st0" x1="295.4" y1="402.8" x2="295.4" y2="191.2"/>
<line class="st0" x1="295.4" y1="191.2" x2="148.6" y2="191.2"/>
<line class="st0" x1="148.6" y1="191.2" x2="189.6" y2="232.1"/>
<line class="st0" x1="189.6" y1="232.1" x2="285.9" y2="232.1"/>
<line class="st0" x1="337.5" y1="436" x2="337.5" y2="232.1"/>
<line class="st0" x1="328.7" y1="436" x2="337.5" y2="444.9"/>
<line class="st0" x1="337.5" y1="431.6" x2="337.5" y2="444.9"/>
<line class="st0" x1="337.5" y1="232.1" x2="306.2" y2="232.1"/>
</svg>
